<!-- preserve-color -->
<svg width="32" height="32" viewBox="0 0 32 32" fill="none" xmlns="http://www.w3.org/2000/svg">
<rect width="32" height="32" rx="16" fill="#2E3148"/>
<path d="M15.9998 25.2838C21.1272 25.2838 25.2838 21.1272 25.2838 15.9998C25.2838 10.8724 21.1272 6.71582 15.9998 6.71582C10.8724 6.71582 6.71582 10.8724 6.71582 15.9998C6.71582 21.1272 10.8724 25.2838 15.9998 25.2838Z" fill="#1B1E36"/>
<path d="M16.0328 2.04102C14.3057 2.04102 12.9053 8.30534 12.9053 16.0328C12.9053 23.7603 14.3057 30.0246 16.0328 30.0246C17.7599 30.0246 19.1604 23.7603 19.1604 16.0328C19.1604 8.30534 17.7599 2.04102 16.0328 2.04102ZM16.2488 29.235C16.0513 29.4984 15.8538 29.3008 15.8538 29.3008C15.0584 28.3792 14.6607 26.6671 14.6607 26.6671C13.2694 22.1898 13.6006 12.5766 13.6006 12.5766C14.2544 4.9447 15.4438 3.14182 15.8485 2.74156C15.8898 2.70071 15.9443 2.67575 16.0022 2.67106C16.0601 2.66638 16.1178 2.68228 16.1652 2.71596C16.7524 3.13209 17.245 4.87238 17.245 4.87238C18.6994 10.2715 18.5677 15.3415 18.5677 15.3415C18.6994 19.753 17.8389 24.6913 17.8389 24.6913C17.1765 28.4442 16.2488 29.235 16.2488 29.235Z" fill="#6F7390"/>
<path d="M28.1688 9.07012C27.3089 7.5715 21.1789 9.47435 14.4728 13.3197C7.7668 17.1651 3.03643 21.4975 3.89569 22.9955C4.75496 24.4935 10.8856 22.5913 17.5917 18.7459C24.2977 14.9005 29.0281 10.5681 28.1688 9.07012ZM4.68904 22.7899C4.35982 22.7485 4.43419 22.4779 4.43419 22.4779C4.83803 21.3296 6.12315 20.1325 6.12315 20.1325C9.31585 16.6975 17.8197 12.201 17.8197 12.201C24.7642 8.97003 26.9212 9.10635 27.4684 9.257C27.5246 9.27268 27.5734 9.30773 27.6062 9.35595C27.639 9.40416 27.6537 9.46243 27.6476 9.52043C27.5818 10.2372 26.3143 11.53 26.3143 11.53C22.3575 15.48 17.894 17.8892 17.894 17.8892C14.133 20.1996 9.42133 21.9095 9.42133 21.9095C5.83617 23.2015 4.68917 22.7899 4.68917 22.7899H4.68904Z" fill="#6F7390"/>
<path d="M28.1386 23.0451C29.0052 21.5505 24.2867 17.1982 17.6042 13.3239C10.9217 9.44959 4.79245 7.52319 3.92666 9.0204C3.06087 10.5176 7.77856 14.8673 14.4649 18.7416C21.1512 22.6159 27.2728 24.5424 28.1386 23.0451ZM4.50087 9.59794C4.37287 9.29445 4.64308 9.22136 4.64308 9.22136C5.83936 8.99544 7.51975 9.51026 7.51975 9.51026C12.0913 10.5513 20.2429 15.6575 20.2429 15.6575C26.5192 20.0493 27.4817 21.9837 27.626 22.5328C27.6407 22.5892 27.635 22.6489 27.6099 22.7014C27.5848 22.7539 27.542 22.7959 27.489 22.82C26.8346 23.1196 25.0817 22.6731 25.0817 22.6731C19.6792 21.2246 15.3586 18.5705 15.3586 18.5705C11.4765 16.4767 7.63776 13.2549 7.63776 13.2549C4.7209 10.799 4.50176 9.60127 4.50176 9.60127L4.50087 9.59794Z" fill="#6F7390"/>
<path d="M15.9996 17.6462C16.9087 17.6462 17.6457 16.9092 17.6457 16.0001C17.6457 15.091 16.9087 14.354 15.9996 14.354C15.0905 14.354 14.3535 15.091 14.3535 16.0001C14.3535 16.9092 15.0905 17.6462 15.9996 17.6462Z" fill="#B7B9C8"/>
<path d="M22.7487 10.6667C23.276 10.6667 23.7034 10.2245 23.7034 9.67905C23.7034 9.13359 23.276 8.69141 22.7487 8.69141C22.2214 8.69141 21.7939 9.13359 21.7939 9.67905C21.7939 10.2245 22.2214 10.6667 22.7487 10.6667Z" fill="#B7B9C8"/>
<path d="M7.0778 14.0246C7.60509 14.0246 8.03255 13.5824 8.03255 13.037C8.03255 12.4915 7.60509 12.0493 7.0778 12.0493C6.5505 12.0493 6.12305 12.4915 6.12305 13.037C6.12305 13.5824 6.5505 14.0246 7.0778 14.0246Z" fill="#B7B9C8"/>
<path d="M14.0573 26.1398C14.5846 26.1398 15.012 25.6977 15.012 25.1522C15.012 24.6067 14.5846 24.1646 14.0573 24.1646C13.53 24.1646 13.1025 24.6067 13.1025 25.1522C13.1025 25.6977 13.53 26.1398 14.0573 26.1398Z" fill="#B7B9C8"/>
</svg>
