<!-- preserve-color -->
<svg width="200" height="200" viewBox="0 0 200 200" fill="none" xmlns="http://www.w3.org/2000/svg">
<path d="M67.12 48.1998C67.12 48.6398 66.68 48.9598 66.24 48.9198C65.8 48.9198 65.48 48.4798 65.52 48.0398C65.56 47.5998 65.96 47.2798 66.4 47.3198C66.84 47.3598 67.16 47.7598 67.12 48.1998Z" fill="white"/>
<path d="M64.6004 52.5601C64.6004 53.0001 64.1604 53.3201 63.7204 53.2801C63.2804 53.2801 62.9604 52.8401 63.0004 52.4001C63.0404 51.9601 63.4404 51.6401 63.8804 51.6801C64.3204 51.7201 64.6404 52.1201 64.6004 52.5601Z" fill="white"/>
<path d="M62.12 56.2799C62.12 56.7199 61.68 57.0399 61.24 56.9999C60.8 56.9999 60.48 56.5599 60.52 56.1199C60.56 55.6799 60.96 55.3599 61.4 55.3999C61.84 55.4399 62.16 55.8399 62.12 56.2799Z" fill="white"/>
<path d="M60.8797 61.1602C60.8797 61.6002 60.4397 61.9202 59.9997 61.8802C59.5597 61.8802 59.2397 61.4402 59.2797 61.0002C59.3197 60.5602 59.7197 60.2402 60.1597 60.2802C60.5997 60.3202 60.9197 60.7202 60.8797 61.1602Z" fill="white"/>
<path d="M92.3201 125.52C92.0001 125.32 91.9201 124.84 92.1601 124.52C92.4001 124.2 92.8401 124.12 93.1601 124.36C93.4801 124.6 93.5601 125.04 93.3201 125.36C93.0801 125.68 92.6401 125.76 92.3201 125.52Z" fill="white"/>
<path d="M86.4001 119.64C86.0801 119.44 86.0001 118.96 86.2401 118.64C86.4801 118.32 86.9201 118.24 87.2401 118.48C87.5601 118.72 87.6401 119.16 87.4001 119.48C87.1601 119.8 86.7201 119.88 86.4001 119.64Z" fill="white"/>
<path d="M96.8 129.92C96.4 129.92 96.04 129.68 96.04 129.24C96.04 128.8 96.28 128.48 96.72 128.48C97.16 128.48 97.48 128.72 97.48 129.16C97.48 129.6 97.24 129.92 96.8 129.92Z" fill="white"/>
<path d="M104.88 143.56C104.48 143.56 104.12 143.32 104.12 142.88C104.12 142.44 104.36 142.12 104.8 142.12C105.24 142.12 105.56 142.36 105.56 142.8C105.56 143.24 105.32 143.56 104.88 143.56Z" fill="white"/>
<path d="M103.48 152.2C103.08 152.2 102.72 151.96 102.72 151.52C102.72 151.08 102.96 150.76 103.4 150.76C103.84 150.76 104.16 151 104.16 151.44C104.16 151.88 103.92 152.2 103.48 152.2Z" fill="white"/>
<path d="M98.4797 158.64C98.0797 158.64 97.7197 158.4 97.7197 157.96C97.7197 157.52 97.9597 157.2 98.3997 157.2C98.8397 157.2 99.1597 157.44 99.1597 157.88C99.1597 158.32 98.9197 158.64 98.4797 158.64Z" fill="white"/>
<path d="M93.4797 103.08C93.0797 103.08 92.7197 102.84 92.7197 102.4C92.7197 101.96 92.9597 101.64 93.3997 101.64C93.8397 101.64 94.1597 101.88 94.1597 102.32C94.1597 102.76 93.9197 103.08 93.4797 103.08Z" fill="white"/>
<path d="M88.2405 105.36C87.8405 105.36 87.4805 105.12 87.4805 104.68C87.4805 104.24 87.7205 103.92 88.1605 103.92C88.6005 103.92 88.9205 104.16 88.9205 104.6C88.9205 105.04 88.6805 105.36 88.2405 105.36Z" fill="white"/>
<path d="M109.6 61.8399C109.2 61.8399 108.84 61.5999 108.84 61.1599C108.84 60.7199 109.08 60.3999 109.52 60.3999C109.96 60.3999 110.28 60.6399 110.28 61.0799C110.28 61.5199 110.04 61.8399 109.6 61.8399Z" fill="white"/>
<path d="M84.5198 111.24C84.1198 111.24 83.7598 111 83.7598 110.56C83.7598 110.12 83.9998 109.8 84.4398 109.8C84.8798 109.8 85.1998 110.04 85.1998 110.48C85.1998 110.92 84.9598 111.24 84.5198 111.24Z" fill="white"/>
<path d="M89.3602 190.76H88.9602C88.9602 182.92 85.7602 177.32 79.4002 174.2C74.6402 171.84 69.8402 171.84 69.8002 171.84V171.44C69.8402 171.44 74.6802 171.44 79.4002 169.08C85.7602 165.92 88.9602 160.36 88.9602 152.52H89.3602C89.3602 160.36 92.5202 165.96 98.8002 169.08C103.48 171.44 108.24 171.44 108.28 171.44V171.84C108.24 171.84 103.48 171.84 98.8002 174.2C92.5202 177.36 89.3602 182.92 89.3602 190.76ZM72.1602 171.6C74.0402 171.84 76.8402 172.44 79.5602 173.8C83.5202 175.76 88.1602 179.68 89.1602 187.48C90.1602 179.68 94.7202 175.72 98.6402 173.8C101.36 172.44 104.12 171.84 105.96 171.6C104.08 171.36 101.36 170.76 98.6402 169.4C94.7202 167.44 90.1602 163.52 89.1602 155.72C88.1602 163.52 83.5202 167.48 79.5602 169.4C76.8002 170.76 74.0402 171.36 72.1602 171.6ZM89.3602 138.16H88.9602C88.9602 112.24 97.6802 97.64 104.72 85.92C110.72 75.92 115.88 67.28 114.08 54.76C113 34.56 99.5202 21.64 87.6402 21.24C75.8802 20.88 67.4002 32 66.4802 33.28C58.8402 43.72 60.8002 55.24 61.5602 58.56L62.0002 60.36L61.2002 58.68C55.9602 47.76 56.7602 35.52 63.1602 27.52C71.1602 17.52 84.3202 18.28 89.9602 18.6C90.6402 18.6 91.2002 18.68 91.6002 18.68C101.96 18.8 112.4 23.04 120.24 30.36C127.92 37.52 132.28 46.84 132.28 55.84C132.4 75.36 121.56 86 111.12 96.32C100.44 106.84 89.3602 117.72 89.3602 138.16ZM87.0402 20.84C87.2402 20.84 87.4402 20.84 87.6402 20.84C94.0002 21.04 100.52 24.6 105.48 30.6C110.76 36.96 113.96 45.52 114.44 54.72C116.28 67.36 111.08 76.08 105.04 86.12C98.5602 96.92 91.3602 108.96 89.6802 129.28C92.3602 114.16 101.72 104.96 110.8 96C121.68 85.28 131.96 75.16 131.84 55.84C131.84 36.8 112.64 19.28 91.5602 19.08C91.1202 19.08 90.5602 19.08 89.8802 19C84.3202 18.68 71.2802 17.96 63.4402 27.76C57.4402 35.28 56.4402 46.56 60.8002 56.88C60.0002 52.2 59.4402 42.2 66.1202 33.04C67.0402 31.76 75.3602 20.84 87.0402 20.84Z" fill="#D9A250"/>
<path d="M89.7195 192.76H89.3195C89.3195 184.92 86.1195 179.32 79.7595 176.2C74.9995 173.84 70.1995 173.84 70.1595 173.84V173.44C70.1995 173.44 75.0395 173.44 79.7595 171.08C86.1195 167.92 89.3195 162.36 89.3195 154.52H89.7195C89.7195 162.36 92.8795 167.96 99.1595 171.08C103.84 173.44 108.6 173.44 108.64 173.44V173.84C108.6 173.84 103.84 173.84 99.1595 176.2C92.8795 179.36 89.7195 184.92 89.7195 192.76ZM72.4795 173.64C74.3595 173.88 77.1595 174.48 79.8795 175.84C83.8395 177.8 88.4795 181.72 89.4795 189.52C90.4795 181.72 95.0395 177.76 98.9595 175.84C101.68 174.48 104.44 173.88 106.28 173.64C104.4 173.4 101.68 172.8 98.9595 171.44C95.0395 169.48 90.4795 165.56 89.4795 157.76C88.4795 165.56 83.8395 169.52 79.8795 171.44C77.1195 172.8 74.3595 173.4 72.4795 173.64ZM89.7195 140.16H89.3195C89.3195 114.24 98.0396 99.64 105.08 87.92C111.08 77.92 116.24 69.28 114.44 56.76C113.36 36.56 99.8795 23.64 87.9995 23.24C76.2395 22.84 67.7595 34 66.8395 35.28C59.1995 45.72 61.1595 57.24 61.9195 60.56L62.3595 62.36L61.5595 60.68C56.3195 49.76 57.1195 37.52 63.5195 29.52C71.5195 19.52 84.6795 20.28 90.3195 20.6C90.9995 20.6 91.5595 20.68 91.9595 20.68C102.32 20.8 112.76 25.04 120.6 32.36C128.28 39.52 132.64 48.84 132.64 57.84C132.76 77.36 121.92 88 111.48 98.32C100.8 108.84 89.7195 119.72 89.7195 140.16ZM87.3595 22.88C87.5595 22.88 87.7595 22.88 87.9595 22.88C94.3195 23.08 100.84 26.64 105.8 32.64C111.08 39 114.28 47.56 114.76 56.76C116.6 69.4 111.4 78.12 105.36 88.16C98.8795 98.96 91.6795 111 90.0395 131.32C92.7195 116.2 102.08 107 111.16 98.04C122.04 87.32 132.32 77.2 132.2 57.88C132.2 38.84 113 21.32 91.9195 21.12C91.4795 21.12 90.9195 21.12 90.2395 21.04C84.6795 20.72 71.6395 20 63.7995 29.8C57.7995 37.32 56.7995 48.6 61.1595 58.92C60.3595 54.24 59.7995 44.24 66.4795 35.08C67.3995 33.8 75.7195 22.88 87.3995 22.88H87.3595Z" fill="#D9A250"/>
<path d="M85.5202 169.16C85.8002 169.44 87.2802 171.6 87.2802 171.6L85.0802 170.44L84.0402 172.52L83.9602 170.6L81.9602 171.68L82.8402 169.92L80.2402 169.72L82.4002 168.92L81.0802 167.4L83.0802 168.16L83.6402 165.68L84.0002 168.04L86.2002 165.96L85.2802 168.08L87.3602 168.36L85.4802 169.16H85.5202Z" fill="white"/>
<path d="M124.36 82.8398C124.56 83.0798 125.8 84.8798 125.8 84.8798L123.96 83.8798L123.08 85.5998L123 83.9598L121.36 84.8398L122.12 83.3998L119.92 83.2398L121.76 82.5598L120.64 81.2798L122.28 81.9198L122.72 79.8398L123.04 81.7998L124.92 80.0398L124.16 81.7998L125.92 82.0398L124.32 82.7198L124.36 82.8398Z" fill="white"/>
<path d="M101.16 137.24L99.3199 139.64L99.5599 136.48L97.8799 135.52L100.2 135.72L101.48 132.68L101.32 135.12L104.32 135.56L102.8 136.32L103.08 138.44L101.16 137.24Z" fill="white"/>
<path d="M100.72 99.7999C100.88 100.4 101.44 104.64 101.44 104.64L99.1597 101.28L96.1197 103.48L97.4797 100.64H93.7597L96.3197 98.8799L92.7197 96.6399L96.4397 97.1199L95.6797 93.9599L97.9597 96.5199L100.64 93.3599L99.3597 97.0799L104.12 95.7599L101.24 98.0799L104.04 100.08L100.72 99.8399V99.7599V99.7999Z" fill="white"/>
<path d="M90.2002 20.9201L88.9202 25.3201L87.9602 21.0401L84.1602 20.9601L87.6402 19.2001L85.8402 14.9601L88.2402 16.9601L90.0402 14.0801L90.7602 16.9201L94.2002 16.1601L91.5202 18.4401L94.0002 20.4801L90.2002 20.9201Z" fill="white"/>
<path d="M113.24 60.9999L110.24 57.9199L113.6 58.3999L116.76 54.3599L115.96 59.6399L119 61.9599L114.92 61.3599L113.12 63.9999L113.24 60.9999Z" fill="white"/>
<path d="M101.64 152.44L101.12 148.08L103.52 150.6L108.64 149.36L104.68 153.08L105.64 156.84L102.76 153.8L99.5996 154.76L101.64 152.44Z" fill="white"/>
<path d="M57.5197 43.8L59.7997 43L58.7197 44.64L60.1197 47.2L57.5597 45.56L55.6797 46.6L56.9197 44.64L55.9997 43.08L57.5197 43.8Z" fill="white"/>
<path d="M121.36 32.36L123.2 28.96L123.52 33.04L125.92 33.96L122.84 34.2L121.84 38.32L121.56 35.12L117.6 35.16L119.44 33.88L118.64 31.24L121.36 32.36Z" fill="white"/>
<path d="M104.88 94.0801C104.48 94.0801 104.12 93.8401 104.12 93.4001C104.12 92.9601 104.36 92.6401 104.8 92.6401C105.24 92.6401 105.56 92.8801 105.56 93.3201C105.56 93.7601 105.32 94.0801 104.88 94.0801Z" fill="white"/>
<path d="M106.28 66.5601C105.88 66.5601 105.52 66.3201 105.52 65.8801C105.52 65.4401 105.76 65.1201 106.2 65.1201C106.64 65.1201 106.96 65.3601 106.96 65.8001C106.96 66.2401 106.72 66.5601 106.28 66.5601Z" fill="white"/>
<path d="M110.96 92.6802C110.56 92.6802 110.2 92.4402 110.2 92.0002C110.2 91.5602 110.44 91.2402 110.88 91.2402C111.32 91.2402 111.64 91.4802 111.64 91.9202C111.64 92.3602 111.4 92.6802 110.96 92.6802Z" fill="white"/>
<path d="M91.3596 164.08C90.9596 164.08 90.5996 163.84 90.5996 163.4C90.5996 162.96 90.8396 162.64 91.2796 162.64C91.7196 162.64 92.0396 162.88 92.0396 163.32C92.0396 163.76 91.7996 164.08 91.3596 164.08Z" fill="white"/>
<path d="M84.5198 169.76C84.1198 169.76 83.7598 169.52 83.7598 169.08C83.7598 168.64 83.9998 168.32 84.4398 168.32C84.8798 168.32 85.1998 168.56 85.1998 169C85.1998 169.44 84.9598 169.76 84.5198 169.76Z" fill="white"/>
<path d="M80.6399 177.16C80.2399 177.16 79.8799 176.92 79.8799 176.48C79.8799 176.04 80.1199 175.72 80.5599 175.72C80.9999 175.72 81.3199 175.96 81.3199 176.4C81.3199 176.84 81.0799 177.16 80.6399 177.16Z" fill="white"/>
<path d="M83.8401 183.32C83.4401 183.32 83.0801 183.08 83.0801 182.64C83.0801 182.2 83.3201 181.88 83.7601 181.88C84.2001 181.88 84.5201 182.12 84.5201 182.56C84.5201 183 84.2801 183.32 83.8401 183.32Z" fill="white"/>
<path d="M92.76 190.32C92.36 190.32 92 190.08 92 189.64C92 189.2 92.24 188.88 92.68 188.88C93.12 188.88 93.44 189.12 93.44 189.56C93.44 190 93.2 190.32 92.76 190.32Z" fill="white"/>
<path d="M107 72.5201C106.6 72.5201 106.24 72.2801 106.24 71.8401C106.24 71.4001 106.48 71.0801 106.92 71.0801C107.36 71.0801 107.68 71.3201 107.68 71.7601C107.68 72.2001 107.44 72.5201 107 72.5201Z" fill="white"/>
<path d="M113.24 77.7198C112.84 77.7198 112.48 77.4798 112.48 77.0398C112.48 76.5998 112.72 76.2798 113.16 76.2798C113.6 76.2798 113.92 76.5198 113.92 76.9598C113.92 77.3998 113.68 77.7198 113.24 77.7198Z" fill="white"/>
<path d="M119.04 56.5601C118.64 56.5601 118.28 56.3201 118.28 55.8801C118.28 55.4401 118.52 55.1201 118.96 55.1201C119.4 55.1201 119.72 55.3601 119.72 55.8001C119.72 56.2401 119.48 56.5601 119.04 56.5601Z" fill="white"/>
<path d="M125.28 51.92C124.88 51.92 124.52 51.68 124.52 51.24C124.52 50.8 124.76 50.48 125.2 50.48C125.64 50.48 125.96 50.72 125.96 51.16C125.96 51.6 125.72 51.92 125.28 51.92Z" fill="white"/>
<path d="M130.2 47.92C129.8 47.92 129.44 47.68 129.44 47.24C129.44 46.8 129.68 46.48 130.12 46.48C130.56 46.48 130.88 46.72 130.88 47.16C130.88 47.6 130.64 47.92 130.2 47.92Z" fill="white"/>
<path d="M133.52 41.5601C133.12 41.5601 132.76 41.3201 132.76 40.8801C132.76 40.4401 133 40.1201 133.44 40.1201C133.88 40.1201 134.2 40.3601 134.2 40.8001C134.2 41.2401 133.96 41.5601 133.52 41.5601Z" fill="white"/>
<path d="M133.52 34.3599C133.12 34.3599 132.76 34.1199 132.76 33.6799C132.76 33.2399 133 32.9199 133.44 32.9199C133.88 32.9199 134.2 33.1599 134.2 33.5999C134.2 34.0399 133.96 34.3599 133.52 34.3599Z" fill="white"/>
<path d="M127.4 31.96C127 31.96 126.64 31.72 126.64 31.28C126.64 30.84 126.88 30.52 127.32 30.52C127.76 30.52 128.08 30.76 128.08 31.2C128.08 31.64 127.84 31.96 127.4 31.96Z" fill="white"/>
<path d="M113.24 33.6402C112.84 33.6402 112.48 33.4002 112.48 32.9602C112.48 32.5202 112.72 32.2002 113.16 32.2002C113.6 32.2002 113.92 32.4402 113.92 32.8802C113.92 33.3202 113.68 33.6402 113.24 33.6402Z" fill="white"/>
<path d="M104.16 31.96C103.76 31.96 103.4 31.72 103.4 31.28C103.4 30.84 103.64 30.52 104.08 30.52C104.52 30.52 104.84 30.76 104.84 31.2C104.84 31.64 104.6 31.96 104.16 31.96Z" fill="white"/>
<path d="M97.2004 29.6802C96.8004 29.6802 96.4404 29.4402 96.4404 29.0002C96.4404 28.5602 96.6804 28.2402 97.1204 28.2402C97.5604 28.2402 97.8804 28.4802 97.8804 28.9202C97.8804 29.3602 97.6404 29.6802 97.2004 29.6802Z" fill="white"/>
<path d="M57.9202 41.5601C57.5202 41.5601 57.1602 41.3201 57.1602 40.8801C57.1602 40.4401 57.4002 40.1201 57.8402 40.1201C58.2802 40.1201 58.6002 40.3601 58.6002 40.8001C58.6002 41.2401 58.3602 41.5601 57.9202 41.5601Z" fill="white"/>
<path d="M91.5998 25.3199C91.1998 25.3199 90.8398 25.0799 90.8398 24.6399C90.8398 24.1999 91.0798 23.8799 91.5198 23.8799C91.9598 23.8799 92.2798 24.1199 92.2798 24.5599C92.2798 24.9999 92.0398 25.3199 91.5998 25.3199Z" fill="white"/>
<path d="M57.2004 35.0401C56.8004 35.0401 56.4404 34.8001 56.4404 34.3601C56.4404 33.9201 56.6804 33.6001 57.1204 33.6001C57.5604 33.6001 57.8804 33.8401 57.8804 34.2801C57.8804 34.7201 57.6404 35.0401 57.2004 35.0401Z" fill="white"/>
<path d="M58.6399 26.7198C58.2399 26.7198 57.8799 26.4798 57.8799 26.0398C57.8799 25.5998 58.1199 25.2798 58.5599 25.2798C58.9999 25.2798 59.3199 25.5198 59.3199 25.9598C59.3199 26.3998 59.0799 26.7198 58.6399 26.7198Z" fill="white"/>
<path d="M63.9202 19.7198C63.5202 19.7198 63.1602 19.4798 63.1602 19.0398C63.1602 18.5998 63.4002 18.2798 63.8402 18.2798C64.2802 18.2798 64.6002 18.5198 64.6002 18.9598C64.6002 19.3998 64.3602 19.7198 63.9202 19.7198Z" fill="white"/>
<path d="M71.6399 16.2798C71.2399 16.2798 70.8799 16.0398 70.8799 15.5998C70.8799 15.1598 71.1199 14.8398 71.5599 14.8398C71.9999 14.8398 72.3199 15.0798 72.3199 15.5198C72.3199 15.9598 72.0799 16.2798 71.6399 16.2798Z" fill="white"/>
<path d="M81.4797 15.6002C81.0797 15.6002 80.7197 15.3602 80.7197 14.9202C80.7197 14.4802 80.9597 14.1602 81.3997 14.1602C81.8397 14.1602 82.1597 14.4002 82.1597 14.8402C82.1597 15.2802 81.9197 15.6002 81.4797 15.6002Z" fill="white"/>
<path d="M122.96 91.96C122.56 91.96 122.2 91.72 122.2 91.28C122.2 90.84 122.44 90.52 122.88 90.52C123.32 90.52 123.64 90.76 123.64 91.2C123.64 91.64 123.4 91.96 122.96 91.96Z" fill="white"/>
<path d="M125.96 87.6002C125.56 87.6002 125.2 87.3602 125.2 86.9202C125.2 86.4802 125.44 86.1602 125.88 86.1602C126.32 86.1602 126.64 86.4002 126.64 86.8402C126.64 87.2802 126.4 87.6002 125.96 87.6002Z" fill="white"/>
<path d="M116.92 93.3599C116.52 93.3599 116.16 93.1199 116.16 92.6799C116.16 92.2399 116.4 91.9199 116.84 91.9199C117.28 91.9199 117.6 92.1599 117.6 92.5999C117.6 93.0399 117.36 93.3599 116.92 93.3599Z" fill="white"/>
<path d="M118.32 80.6402C117.92 80.6402 117.56 80.4002 117.56 79.9602C117.56 79.5202 117.8 79.2002 118.24 79.2002C118.68 79.2002 119 79.4402 119 79.8802C119 80.3202 118.76 80.6402 118.32 80.6402Z" fill="white"/>
<path d="M93.7596 138.96C93.0396 130.88 94.6396 122.2 99.8796 115.8C101.2 114.24 102.72 112.84 104.24 111.48C107 109.08 110.76 105.8 113.36 103.32C128.04 89.9599 138.76 77.4399 137.6 56.3599C138.24 64.5199 136.84 72.8799 133.2 80.1999C127.68 91.2799 118.12 99.5199 109.08 107.72C106.44 110.08 102.36 113.32 100.08 116C94.8396 122.32 93.1596 130.92 93.7196 138.96H93.7596Z" fill="#D9A250"/>
<path d="M113 109.56C121.24 103.6 128.2 96 134.24 87.88C136.24 85.16 138 82.24 139.44 79.2C145.32 66.6 145.92 51.36 139.8 38.76C134.2 26.8 122.92 18.24 110.48 14.36C100.8 11.28 90.2399 11.4 80.4399 14.12C77.1599 15.04 73.9999 16.2 70.9199 17.68C73.9599 16.16 77.1199 14.96 80.3999 14.04C90.1599 11.2 100.8 11.08 110.52 14.12C123.08 17.96 134.48 26.56 140.12 38.6C146.28 51.32 145.64 66.68 139.64 79.32C138.2 82.4 136.4 85.28 134.36 88.04C128.28 96.16 121.2 103.68 112.92 109.6L113 109.56Z" fill="#D9A250"/>
</svg>
